<svg aria-hidden="true" style="position: absolute; width: 0; height: 0; overflow: hidden;" version="1.1" xmlns="http://www.w3.org/2000/svg" xmlns:xlink="http://www.w3.org/1999/xlink">
<defs>
<symbol id="icon-design" viewBox="0 0 28 32">
<path d="M9.806 0h8.258c5.416 0 9.806 4.391 9.806 9.806v8.258c0 5.416-4.39 9.806-9.806 9.806h-8.258c-5.416 0-9.806-4.39-9.806-9.806v-8.258c0-5.416 4.391-9.806 9.806-9.806z"></path>
<path d="M14.184 13.235l0.604 0.281 0.898-0.267v-0.627c0-1.064-0.898-1.917-1.972-1.917-1.069 0-1.973 0.848-1.973 1.903v2.857c0 0.263-0.212 0.47-0.47 0.47s-0.47-0.207-0.47-0.47v-1.208h-1.512v1.226c0 1.092 0.885 1.977 1.977 1.977v0c1.083 0 1.977-0.871 1.977-1.949v-2.821c0-0.258 0.212-0.47 0.47-0.47s0.47 0.212 0.47 0.47v0.544zM16.627 14.258v1.267c0 0.258-0.212 0.466-0.47 0.466s-0.47-0.207-0.47-0.466v-1.244l-0.899 0.267-0.604-0.281v1.235c0 1.083 0.889 1.958 1.977 1.958 1.092 0 1.977-0.885 1.977-1.977v0-1.226h-1.511z"></path>
</symbol>
<symbol id="icon-fife-tests" viewBox="0 0 32 32">
<path d="M11.259 0h9.481c6.218 0 11.259 5.041 11.259 11.259v9.481c0 6.218-5.041 11.259-11.259 11.259h-9.481c-6.218 0-11.259-5.041-11.259-11.259v-9.481c0-6.218 5.041-11.259 11.259-11.259z"></path>
<path d="M19.301 12.106h0.508c0.095 0 0.169-0.074 0.169-0.169v-0.339c0-0.001 0-0.001 0-0.002 0-0.092-0.075-0.167-0.167-0.167-0.001 0-0.001 0-0.002 0h-7.788c-0.001 0-0.002-0-0.002-0-0.092 0-0.167 0.075-0.167 0.167 0 0.001 0 0.001 0 0.002v-0 0.339c0 0.095 0.074 0.169 0.169 0.169h0.508c0 1.957 0.936 3.375 1.973 4.063-1.037 0.687-1.973 2.105-1.973 4.063h-0.508c-0.001 0-0.002-0-0.002-0-0.092 0-0.167 0.075-0.167 0.167 0 0.001 0 0.002 0 0.003v-0 0.338c0 0.095 0.074 0.169 0.169 0.169h7.788c0.095 0 0.169-0.074 0.169-0.169v-0.338c0-0.001 0-0.002 0-0.002 0-0.092-0.075-0.167-0.167-0.167-0.001 0-0.001 0-0.002 0h-0.508c0-1.958-0.936-3.376-1.973-4.063 1.037-0.688 1.973-2.106 1.973-4.063zM18.625 12.106c0 0.008 0 0.017 0 0.026 0 0.729-0.166 1.418-0.463 2.034l0.012-0.028h-4.518c-0.284-0.587-0.45-1.277-0.45-2.006 0-0.009 0-0.018 0-0.027v0.001h5.419zM18.322 18.54h-4.814c0.391-1.022 1.095-1.746 1.799-2.032h1.217c0.703 0.286 1.407 1.011 1.799 2.032z"></path>
</symbol>
<symbol id="icon-first-click" viewBox="0 0 28 32">
<path d="M9.806 0h8.258c5.416 0 9.806 4.391 9.806 9.806v8.258c0 5.416-4.39 9.806-9.806 9.806h-8.258c-5.416 0-9.806-4.39-9.806-9.806v-8.258c0-5.416 4.391-9.806 9.806-9.806z"></path>
<path d="M16.576 14.76l-4.719-4.719c-0.050-0.054-0.122-0.088-0.201-0.088-0.002 0-0.004 0-0.006 0h0c-0.040 0.001-0.078 0.009-0.112 0.024l0.002-0.001c-0.108 0.045-0.184 0.15-0.184 0.272v6.931c0.001 0.163 0.132 0.294 0.295 0.295h0c0.081-0 0.155-0.034 0.207-0.088l1.438-1.437 0.88 2.083c0.046 0.107 0.151 0.18 0.272 0.18 0.041 0 0.081-0.008 0.117-0.024l-0.002 0.001 0.815-0.346c0.107-0.046 0.18-0.151 0.18-0.272 0-0.041-0.008-0.081-0.024-0.117l0.001 0.002-0.926-2.194h1.76c0.122-0.001 0.227-0.076 0.271-0.182l0.001-0.002c0.015-0.033 0.023-0.072 0.023-0.113 0-0.081-0.034-0.153-0.088-0.205l-0-0z"></path>
</symbol>
<symbol id="icon-preference" viewBox="0 0 28 32">
<path d="M9.806 0h8.258c5.416 0 9.806 4.391 9.806 9.806v8.258c0 5.416-4.39 9.806-9.806 9.806h-8.258c-5.416 0-9.806-4.39-9.806-9.806v-8.258c0-5.416 4.391-9.806 9.806-9.806z"></path>
<path d="M13.935 17.622c0.001 0 0.001 0 0.002 0 0.078 0 0.149-0.032 0.201-0.083l-0 0 2.871-2.765c0.041-0.041 1.055-0.968 1.055-2.074 0-1.35-0.825-2.156-2.203-2.156-0.806 0-1.562 0.636-1.926 0.995-0.364-0.359-1.12-0.995-1.926-0.995-1.378 0-2.203 0.806-2.203 2.156 0 1.106 1.014 2.033 1.051 2.065l2.875 2.774c0.055 0.055 0.129 0.083 0.203 0.083z"></path>
</symbol>
<symbol id="icon-star" viewBox="0 0 34 32">
<path d="M32.404 11.486c-0.108-0.304-0.295-0.558-0.537-0.744l-0.004-0.003c-0.24-0.186-0.538-0.307-0.863-0.334l-0.006-0-9.262-0.724-4.007-8.736c-0.132-0.286-0.337-0.52-0.591-0.684l-0.006-0.004c-0.249-0.16-0.553-0.256-0.879-0.256-0.652 0-1.215 0.381-1.479 0.932l-0.004 0.010-4.007 8.738-9.262 0.724c-0.325 0.026-0.618 0.144-0.859 0.327l0.004-0.003c-0.392 0.29-0.644 0.751-0.644 1.271 0 0.451 0.19 0.858 0.494 1.146l0.001 0.001 6.844 6.569-2.421 10.322c-0.027 0.109-0.043 0.235-0.043 0.364 0 0.545 0.276 1.025 0.697 1.308l0.006 0.004c0.259 0.178 0.579 0.284 0.924 0.284 0.336 0 0.648-0.101 0.908-0.274l-0.006 0.004 8.846-5.808 8.844 5.808c0.254 0.167 0.565 0.267 0.899 0.267 0.36 0 0.693-0.115 0.964-0.311l-0.005 0.003c0.407-0.289 0.669-0.759 0.669-1.29 0-0.157-0.023-0.308-0.065-0.451l0.003 0.011-2.969-10.236 7.367-6.53c0.33-0.292 0.538-0.717 0.538-1.19 0-0.184-0.031-0.361-0.089-0.526l0.003 0.011z"></path>
</symbol>
<symbol id="icon-star-empty" viewBox="0 0 34 32">
<path d="M8.624 19.716l-2.42 10.322c-0.028 0.112-0.045 0.24-0.045 0.372 0 0.543 0.275 1.022 0.693 1.304l0.006 0.004c0.258 0.178 0.578 0.284 0.923 0.284 0.338 0 0.652-0.102 0.913-0.277l-0.006 0.004 8.844-5.808 8.846 5.808c0.253 0.168 0.565 0.268 0.899 0.268 0.36 0 0.693-0.116 0.963-0.312l-0.005 0.003c0.407-0.289 0.669-0.759 0.669-1.29 0-0.157-0.023-0.308-0.065-0.451l0.003 0.011-2.971-10.236 7.369-6.53c0.329-0.293 0.536-0.719 0.536-1.192 0-0.183-0.031-0.359-0.087-0.522l0.003 0.011c-0.108-0.304-0.295-0.558-0.537-0.744l-0.004-0.003c-0.24-0.186-0.539-0.308-0.865-0.334l-0.006-0-9.26-0.725-4.007-8.736c-0.133-0.287-0.338-0.52-0.593-0.684l-0.006-0.004c-0.248-0.159-0.551-0.254-0.876-0.254-0.652 0-1.216 0.381-1.48 0.932l-0.004 0.010-4.009 8.736-9.26 0.724c-0.326 0.026-0.619 0.144-0.861 0.327l0.004-0.003c-0.392 0.29-0.644 0.751-0.644 1.271 0 0.451 0.19 0.858 0.494 1.146l0.001 0.001 6.846 6.569zM13.259 12.796c0.304-0.024 0.581-0.129 0.812-0.291l-0.005 0.003c0.235-0.164 0.42-0.384 0.54-0.641l0.004-0.010 2.923-6.368 2.923 6.368c0.124 0.267 0.31 0.486 0.541 0.647l0.005 0.003c0.238 0.165 0.516 0.265 0.805 0.288l6.453 0.503-5.314 4.709c-0.331 0.292-0.538 0.717-0.538 1.191 0 0.156 0.022 0.306 0.064 0.449l-0.003-0.011 2.036 7.015-6.069-3.986c-0.253-0.169-0.565-0.27-0.9-0.27s-0.647 0.101-0.906 0.274l0.006-0.004-6.341 4.164 1.705-7.271c0.027-0.109 0.042-0.233 0.042-0.362 0-0.449-0.188-0.855-0.489-1.142l-0.001-0.001-4.937-4.738 6.644-0.521z"></path>
</symbol>
</defs>
</svg>
